<svg preserveAspectRatio="none" overflow="visible" style="display: block;" width="134" height="39.3445" viewBox="0 0 134 39.3445" fill="none" xmlns="http://www.w3.org/2000/svg">
<path id="Vector 1247" d="M4.20223 4.78455L0.387854 7.7374C0.143207 7.92679 0 8.21876 0 8.52815V38.3445C0 38.8968 0.447714 39.3445 0.999999 39.3445H133C133.552 39.3445 134 38.8968 134 38.3445V9.03765C134 8.48537 133.552 8.03765 133 8.03765H129.334C128.992 8.03765 128.673 7.86291 128.49 7.57437L124.447 1.21846C124.046 0.58765 123.119 0.604144 122.741 1.24884L118.798 7.9637C118.769 8.01291 118.736 8.05956 118.699 8.10314L115.072 12.3913C114.684 12.8503 113.981 12.8655 113.574 12.4236L109.824 8.35953C109.635 8.15435 109.368 8.03765 109.089 8.03765H104.434C104.106 8.03765 103.799 7.87659 103.612 7.6067L100.255 2.75527C99.782 2.07219 98.7308 2.22987 98.4793 3.02158L94.9607 14.0986C94.6987 14.9235 93.5836 15.0485 93.1453 14.3022L89.4671 8.03765L85.8621 2.3547C85.4786 1.75019 84.6027 1.73264 84.1953 2.32131L80.3129 7.93157C80.2642 8.002 80.2066 8.06588 80.1416 8.12163L75.6749 11.9519C75.3004 12.2731 74.7475 12.2731 74.373 11.9519L70.0893 8.27854C69.908 8.1231 69.6771 8.03765 69.4383 8.03765H65.5992C65.2271 8.03765 64.8859 7.83114 64.7133 7.50158L61.0655 0.536075C60.6912 -0.178693 59.6681 -0.178691 59.2938 0.536078L55.8639 7.08551C55.5945 7.59989 54.9452 7.77747 54.4515 7.47175L49.9134 4.66127C49.5705 4.44892 49.1337 4.46333 48.8055 4.69782L44.8323 7.53707C44.4296 7.82481 43.877 7.77473 43.5326 7.41927L40.0356 3.80966C39.6427 3.40409 38.9921 3.40409 38.5992 3.80966L34.839 7.69084C34.6267 7.90995 34.326 8.02017 34.0225 7.99017L29.843 7.57721C29.6047 7.55367 29.3659 7.61641 29.1699 7.75401L25.762 10.1473C25.2838 10.4831 24.6208 10.3392 24.325 9.8353L20.9166 4.03047C20.5314 3.37443 19.5838 3.37172 19.1948 4.02554L15.0396 11.0104C14.7261 11.5375 14.0163 11.6607 13.5435 11.2702L9.62874 8.03765L5.42652 4.78455C5.06611 4.50554 4.56263 4.50554 4.20223 4.78455Z" fill="url(#paint0_linear_0_23)"/>
<defs>
<linearGradient id="paint0_linear_0_23" x1="67" y1="-1.15553" x2="67" y2="39.3445" gradientUnits="userSpaceOnUse">
<stop stop-color="#E545D2" stop-opacity="0.1"/>
<stop offset="1" stop-color="#E545D2" stop-opacity="0"/>
</linearGradient>
</defs>
</svg>
