<svg preserveAspectRatio="none" overflow="visible" style="display: block;" width="48" height="48" viewBox="0 0 48 48" fill="none" xmlns="http://www.w3.org/2000/svg">
<g id="&#229;&#134;&#133;&#231;&#189;&#174;&#230;&#138;&#128;&#232;&#131;&#189;">
<rect id="Rectangle 34627514" x="15" y="8" width="24" height="25" rx="4" fill="url(#paint0_linear_0_24)"/>
<foreignObject x="0.5" y="4.5" width="41" height="42"><div xmlns="http://www.w3.org/1999/xhtml" style="backdrop-filter:blur(4px);clip-path:url(#bgblur_0_0_24_clip_path);height:100%;width:100%"></div></foreignObject><path id="Rectangle 34627511" data-figma-bg-blur-radius="8" d="M9 17C9 14.7909 10.7909 13 13 13H29C31.2091 13 33 14.7909 33 17V34C33 36.2091 31.2091 38 29 38H13C10.7909 38 9 36.2091 9 34V17Z" fill="#FFD1BB" fill-opacity="0.4" stroke="url(#paint1_linear_0_24)"/>
<g id="Star 5" filter="url(#filter1_d_0_24)">
<path d="M27.1245 29.2615C27.2535 28.9128 27.7465 28.9128 27.8755 29.2615L28.2988 30.4054C28.3495 30.5424 28.4576 30.6505 28.5946 30.7012L29.7385 31.1245C30.0872 31.2535 30.0872 31.7465 29.7385 31.8755L28.5946 32.2988C28.4576 32.3495 28.3495 32.4576 28.2988 32.5946L27.8755 33.7385C27.7465 34.0872 27.2535 34.0872 27.1245 33.7385L26.7012 32.5946C26.6505 32.4576 26.5424 32.3495 26.4054 32.2988L25.2615 31.8755C24.9128 31.7465 24.9128 31.2535 25.2615 31.1245L26.4054 30.7012C26.5424 30.6505 26.6505 30.5424 26.7012 30.4054L27.1245 29.2615Z" fill="url(#paint2_linear_0_24)"/>
</g>
<g id="Vector" filter="url(#filter2_d_0_24)">
<path d="M25.7307 19.9118C24.9676 20.2137 23.8344 20.3098 22.2622 19.6078C18.8742 18.098 17.5262 19.6078 17.5262 19.6078V18.7804C17.5262 18.349 17.1849 18 16.7631 18C16.3413 18 16 18.349 16 18.7804V32.2196C16 32.651 16.3413 33 16.7631 33C17.1849 33 17.5262 32.651 17.5262 32.2196V26.8412C17.5262 26.8412 18.8742 25.3314 22.2622 26.8412C24.8084 27.9765 26.2024 27.0255 26.7392 26.4843C26.9099 26.3118 27 26.0745 27 25.8294V20.7706C26.9981 20.1039 26.3385 19.6706 25.7307 19.9118Z" fill="url(#paint3_linear_0_24)"/>
</g>
</g>
<defs>
<clipPath id="bgblur_0_0_24_clip_path" transform="translate(-0.5 -4.5)"><path d="M9 17C9 14.7909 10.7909 13 13 13H29C31.2091 13 33 14.7909 33 17V34C33 36.2091 31.2091 38 29 38H13C10.7909 38 9 36.2091 9 34V17Z"/>
</clipPath><filter id="filter1_d_0_24" x="21" y="27" width="13" height="13" filterUnits="userSpaceOnUse" color-interpolation-filters="sRGB">
<feFlood flood-opacity="0" result="BackgroundImageFix"/>
<feColorMatrix in="SourceAlpha" type="matrix" values="0 0 0 0 0 0 0 0 0 0 0 0 0 0 0 0 0 0 127 0" result="hardAlpha"/>
<feOffset dy="2"/>
<feGaussianBlur stdDeviation="2"/>
<feColorMatrix type="matrix" values="0 0 0 0 0.831373 0 0 0 0 0.235294 0 0 0 0 0 0 0 0 0.5 0"/>
<feBlend mode="normal" in2="BackgroundImageFix" result="effect1_dropShadow_0_24"/>
<feBlend mode="normal" in="SourceGraphic" in2="effect1_dropShadow_0_24" result="shape"/>
</filter>
<filter id="filter2_d_0_24" x="12" y="16" width="19" height="23" filterUnits="userSpaceOnUse" color-interpolation-filters="sRGB">
<feFlood flood-opacity="0" result="BackgroundImageFix"/>
<feColorMatrix in="SourceAlpha" type="matrix" values="0 0 0 0 0 0 0 0 0 0 0 0 0 0 0 0 0 0 127 0" result="hardAlpha"/>
<feOffset dy="2"/>
<feGaussianBlur stdDeviation="2"/>
<feColorMatrix type="matrix" values="0 0 0 0 0.831169 0 0 0 0 0.235498 0 0 0 0 0 0 0 0 0.4 0"/>
<feBlend mode="normal" in2="BackgroundImageFix" result="effect1_dropShadow_0_24"/>
<feBlend mode="normal" in="SourceGraphic" in2="effect1_dropShadow_0_24" result="shape"/>
</filter>
<linearGradient id="paint0_linear_0_24" x1="36" y1="25.7632" x2="14.9971" y2="26.3104" gradientUnits="userSpaceOnUse">
<stop stop-color="#FF6309"/>
<stop offset="1" stop-color="#F8AE5E"/>
</linearGradient>
<linearGradient id="paint1_linear_0_24" x1="21" y1="13" x2="21" y2="38" gradientUnits="userSpaceOnUse">
<stop stop-color="#FFE4D4"/>
<stop offset="1" stop-color="#FFCFB5"/>
</linearGradient>
<linearGradient id="paint2_linear_0_24" x1="26.0651" y1="31.3588" x2="28.8759" y2="31.4061" gradientUnits="userSpaceOnUse">
<stop stop-color="white" stop-opacity="0.8"/>
<stop offset="1" stop-color="white"/>
</linearGradient>
<linearGradient id="paint3_linear_0_24" x1="18.3432" y1="25.0763" x2="24.5278" y2="25.1526" gradientUnits="userSpaceOnUse">
<stop stop-color="white" stop-opacity="0.8"/>
<stop offset="1" stop-color="white"/>
</linearGradient>
</defs>
</svg>
